<?xml version="1.0" encoding="UTF-8"?>
<svg width="60px" height="60px" viewBox="0 0 60 60" version="1.1" xmlns="http://www.w3.org/2000/svg" xmlns:xlink="http://www.w3.org/1999/xlink">
    <!-- Generator: Sketch 50.2 (55047) - http://www.bohemiancoding.com/sketch -->
    <title>00</title>
    <desc>Created with Sketch.</desc>
    <defs></defs>
    <g id="00" stroke="none" stroke-width="1" fill="none" fill-rule="evenodd">
        <path d="M30,54 C43.254834,54 54,43.254834 54,30 C54,16.745166 43.254834,6 30,6 C16.745166,6 6,16.745166 6,30 C6,43.254834 16.745166,54 30,54 Z M30,60 C13.4314575,60 0,46.5685425 0,30 C0,13.4314575 13.4314575,0 30,0 C46.5685425,0 60,13.4314575 60,30 C60,46.5685425 46.5685425,60 30,60 Z" id="Oval-3" fill="#000000" fill-rule="nonzero"></path>
        <path d="M29,18.5 C29,17.6715729 29.6715729,17 30.5,17 C31.3284271,17 32,17.6715729 32,18.5 L32,39.5 C32,40.3284271 31.3284271,41 30.5,41 C29.6715729,41 29,40.3284271 29,39.5 L29,18.5 Z" id="Line" fill="#000000" fill-rule="nonzero"></path>
        <path d="M37.0340742,19.258819 C36.8911324,18.7253529 37.2077149,18.177016 37.741181,18.0340742 C38.2746471,17.8911324 38.822984,18.2077149 38.9659258,18.741181 L39.4835639,20.6730326 C39.6265057,21.2064987 39.3099232,21.7548357 38.7764571,21.8977775 C38.242991,22.0407193 37.6946541,21.7241368 37.5517123,21.1906707 L37.0340742,19.258819 Z M38.5869884,25.054374 C38.4440466,24.5209079 38.7606291,23.9725709 39.2940952,23.8296291 C39.8275613,23.6866873 40.3758983,24.0032698 40.5188401,24.5367359 L41.0364782,26.4685876 C41.17942,27.0020537 40.8628375,27.5503906 40.3293714,27.6933324 C39.7959053,27.8362742 39.2475683,27.5196918 39.1046265,26.9862257 L38.5869884,25.054374 Z M40.1399027,30.849929 C39.9969609,30.3164629 40.3135434,29.7681259 40.8470095,29.6251841 C41.3804756,29.4822423 41.9288126,29.7988248 42.0717544,30.3322909 L42.5893925,32.2641425 C42.7323343,32.7976086 42.4157518,33.3459456 41.8822857,33.4888874 C41.3488196,33.6318292 40.8004826,33.3152467 40.6575408,32.7817806 L40.1399027,30.849929 Z M41.692817,36.6454839 C41.5498752,36.1120178 41.8664577,35.5636809 42.3999238,35.420739 C42.9333899,35.2777972 43.4817268,35.5943797 43.6246686,36.1278458 L44.1423067,38.0596975 C44.2852485,38.5931636 43.9686661,39.1415005 43.4351999,39.2844424 C42.9017338,39.4273842 42.3533969,39.1108017 42.2104551,38.5773356 L41.692817,36.6454839 Z" id="Line-Copy" fill="#000000" fill-rule="nonzero"></path>
        <path d="M16.0340742,19.258819 C15.8911324,18.7253529 16.2077149,18.177016 16.741181,18.0340742 C17.2746471,17.8911324 17.822984,18.2077149 17.9659258,18.741181 L18.4835639,20.6730326 C18.6265057,21.2064987 18.3099232,21.7548357 17.7764571,21.8977775 C17.242991,22.0407193 16.6946541,21.7241368 16.5517123,21.1906707 L16.0340742,19.258819 Z M17.5869884,25.054374 C17.4440466,24.5209079 17.7606291,23.9725709 18.2940952,23.8296291 C18.8275613,23.6866873 19.3758983,24.0032698 19.5188401,24.5367359 L20.0364782,26.4685876 C20.17942,27.0020537 19.8628375,27.5503906 19.3293714,27.6933324 C18.7959053,27.8362742 18.2475683,27.5196918 18.1046265,26.9862257 L17.5869884,25.054374 Z M19.1399027,30.849929 C18.9969609,30.3164629 19.3135434,29.7681259 19.8470095,29.6251841 C20.3804756,29.4822423 20.9288126,29.7988248 21.0717544,30.3322909 L21.5893925,32.2641425 C21.7323343,32.7976086 21.4157518,33.3459456 20.8822857,33.4888874 C20.3488196,33.6318292 19.8004826,33.3152467 19.6575408,32.7817806 L19.1399027,30.849929 Z M20.692817,36.6454839 C20.5498752,36.1120178 20.8664577,35.5636809 21.3999238,35.420739 C21.9333899,35.2777972 22.4817268,35.5943797 22.6246686,36.1278458 L23.1423067,38.0596975 C23.2852485,38.5931636 22.9686661,39.1415005 22.4351999,39.2844424 C21.9017338,39.4273842 21.3533969,39.1108017 21.2104551,38.5773356 L20.692817,36.6454839 Z" id="Line-Copy-2" fill="#000000" fill-rule="nonzero" transform="translate(19.588190, 28.659258) scale(-1, 1) translate(-19.588190, -28.659258) "></path>
    </g>
</svg>